[img]http://img94.imageshack.us/img94/2135/casino1995dvdc1.jpg[/img]

IMDB:[url]http://www.imdb.com/title/tt0112641/[/url]



[quote]
General
Format                                   : Matroska
Format version                           : Version 2
File size                                : 9.54 GiB
Duration                                 : 2h 58mn
Overall bit rate mode                    : Variable
Overall bit rate                         : 7 646 Kbps
Movie name                               : Cazino


Video
ID                                       : 1
Format                                   : AVC
Format/Info                              : Advanced Video Codec
Format profile                           : High@L4.1
Format settings, CABAC                   : Yes
Format settings, ReFrames                : 9 frames
Codec ID                                 : V_MPEG4/ISO/AVC
Duration                                 : 2h 58mn
Bit rate mode                            : Variable
Bit rate                                 : 6 144 Kbps
Maximum bit rate                         : 35.0 Mbps
Width                                    : 1 280 pixels
Height                                   : 544 pixels
Display aspect ratio                     : 2.35:1
Frame rate                               : 23.976 fps
Color space                              : YUV
Chroma subsampling                       : 4:2:0
Bit depth                                : 8 bits
Scan type                                : Progressive
Bits/(Pixel*Frame)                       : 0.368
Stream size                              : 7.46 GiB (78%)
Writing library                          : x264 core 120 r2120 0c7dab9
Default                                  : Yes
Forced                                   : No

Audio
ID                                       : 2
Format                                   : DTS
Format/Info                              : Digital Theater Systems
Codec ID                                 : A_DTS
Duration                                 : 2h 58mn
Bit rate mode                            : Constant
Bit rate                                 : 1 510 Kbps
Channel(s)                               : 6 channels
Channel positions                        : Front: L C R, Side: L R, LFE
Sampling rate                            : 48.0 KHz
Bit depth                                : 24 bits
Compression mode                         : Lossy
Stream size                              : 1.88 GiB (20%)
Language                                 : English
Default                                  : Yes
Forced                                   : No

[/quote]